<svg xmlns="http://www.w3.org/2000/svg" fill="none" viewBox="0 0 24 24">
    <path
        d="M9 4H8a1 1 0 1 1 0-2h8a1 1 0 1 1 0 2h-1v5.631l5.227 7.681c1.355 1.992-.072 4.688-2.48 4.688H6.253c-2.41 0-3.836-2.696-2.48-4.688L9 9.632zm4 0h-2v5.631a2 2 0 0 1-.347 1.125l-5.226 7.681A1 1 0 0 0 6.254 20h11.492a1 1 0 0 0 .827-1.563l-5.227-7.68A2 2 0 0 1 13 9.63z" />

    <style>
        path {
            fill: #000;
        }

        @media (prefers-color-scheme: dark) {
            path {
                fill: #FFF;
            }
        }
    </style>
</svg>